<svg width="960" height="287" viewBox="0 0 960 287" fill="none" xmlns="http://www.w3.org/2000/svg">
<mask id="mask0_537_182" style="mask-type:alpha" maskUnits="userSpaceOnUse" x="0" y="0" width="960" height="287">
<rect width="960" height="287" fill="#D9D9D9"/>
</mask>
<g mask="url(#mask0_537_182)">
<rect y="-0.36792" width="960" height="287.736" fill="url(#paint0_linear_537_182)" style="mix-blend-mode:multiply"/>
<path d="M75.0349 293.202C65.8982 293.037 57.8172 292.609 50.9059 291.988C58.7006 292.384 66.7502 292.789 75.0349 293.202C156.778 294.679 323.022 275.109 492.076 184.259C680.026 83.2558 652.524 5.86317 615.28 -20.2077C726.51 -40.5572 953.791 -60.2687 973.074 23.6812C997.178 128.619 1058.9 296.508 944.055 314.035C854.941 327.635 342.494 306.521 75.0349 293.202Z" fill="white" fill-opacity="0.03"/>
<path d="M223.991 291.994C216.505 291.614 209.901 290.984 204.269 290.181C210.64 290.771 217.219 291.376 223.991 291.994C290.963 295.395 428.505 278.812 572.587 188.101C732.773 87.2501 714.809 6.06586 685.804 -21.9199C778.262 -40.5667 965.885 -55.9047 976.718 31.9177C990.258 141.696 1030.92 317.857 935.664 333.484C861.75 345.609 442.613 311.953 223.991 291.994Z" fill="white" fill-opacity="0.06"/>
</g>
<defs>
<linearGradient id="paint0_linear_537_182" x1="480" y1="-0.36792" x2="480.332" y2="287.369" gradientUnits="userSpaceOnUse">
<stop stop-color="#4097D7"/>
<stop offset="1" stop-color="#216EA6"/>
</linearGradient>
</defs>
</svg>
