<svg width="295" height="156" viewBox="0 0 295 156" fill="none" xmlns="http://www.w3.org/2000/svg">
<mask id="mask0_541_193" style="mask-type:alpha" maskUnits="userSpaceOnUse" x="0" y="0" width="295" height="156">
<rect width="295" height="156" rx="15" fill="#D9D9D9"/>
</mask>
<g mask="url(#mask0_541_193)">
<g filter="url(#filter0_d_541_193)">
<rect x="-2" y="2" width="296.657" height="153.678" fill="#44328D"/>
</g>
<path d="M227.023 6.30894C230.316 -7.8325 272.136 -13.2208 292.634 -14.1472L388.338 117.011L-5.61768 275.939C23.587 262.032 79.4022 228.159 69.0262 203.928C56.0561 173.639 53.619 160.517 65.9852 150.097C78.3514 139.676 85.5295 145.4 110 128.5C134.471 111.6 133.027 74.912 150.358 64.4672C167.69 54.0224 191.407 55.3647 205.5 48C219.593 40.6354 222.907 23.9857 227.023 6.30894Z" fill="white" fill-opacity="0.03"/>
<path d="M249.023 15.3089C252.316 1.1675 294.136 -4.22077 314.634 -5.14724L410.338 126.011L16.3823 284.939C45.587 271.032 101.402 237.159 91.0262 212.928C78.0561 182.639 75.619 169.517 87.9852 159.097C100.351 148.676 107.529 154.4 132 137.5C156.471 120.6 155.027 83.912 172.358 73.4672C189.69 63.0224 213.407 64.3647 227.5 57C241.593 49.6354 244.907 32.9857 249.023 15.3089Z" fill="white" fill-opacity="0.06"/>
</g>
<defs>
<filter id="filter0_d_541_193" x="-6" y="2" width="304.657" height="161.678" filterUnits="userSpaceOnUse" color-interpolation-filters="sRGB">
<feFlood flood-opacity="0" result="BackgroundImageFix"/>
<feColorMatrix in="SourceAlpha" type="matrix" values="0 0 0 0 0 0 0 0 0 0 0 0 0 0 0 0 0 0 127 0" result="hardAlpha"/>
<feOffset dy="4"/>
<feGaussianBlur stdDeviation="2"/>
<feComposite in2="hardAlpha" operator="out"/>
<feColorMatrix type="matrix" values="0 0 0 0 0 0 0 0 0 0 0 0 0 0 0 0 0 0 0.25 0"/>
<feBlend mode="normal" in2="BackgroundImageFix" result="effect1_dropShadow_541_193"/>
<feBlend mode="normal" in="SourceGraphic" in2="effect1_dropShadow_541_193" result="shape"/>
</filter>
</defs>
</svg>
