<svg width="24" height="24" viewBox="0 0 24 24" fill="none" xmlns="http://www.w3.org/2000/svg">
<path d="M22.4361 4.28632C23.1879 3.53453 23.1879 2.31563 22.4361 1.56384C21.6843 0.812052 20.4655 0.812052 19.7137 1.56384L12 9.27751L4.28634 1.56384C3.53455 0.812054 2.31566 0.812053 1.56387 1.56384C0.812076 2.31563 0.812077 3.53453 1.56387 4.28632L9.27753 12L1.56384 19.7137C0.812053 20.4655 0.812052 21.6844 1.56384 22.4362C2.31563 23.1879 3.53453 23.1879 4.28632 22.4362L12 14.7225L19.7137 22.4362C20.4655 23.1879 21.6844 23.1879 22.4362 22.4362C23.1879 21.6844 23.1879 20.4655 22.4362 19.7137L14.7225 12L22.4361 4.28632Z" fill="white" stroke="#191919" strokeLinecap="round"/>
</svg>
