<svg width="499" height="443" viewBox="0 0 499 443" fill="none" xmlns="http://www.w3.org/2000/svg">
<path d="M476.155 242.286C476.155 242.286 487.086 242.913 482.942 267.16C478.799 291.407 474.644 303.93 474.644 303.93C474.644 303.93 474.266 309.338 478.572 308.851C482.878 308.364 491.414 304.103 494.759 308.537C498.104 312.971 496.011 319.19 489.73 325.841C483.45 332.492 470.22 347.622 469.033 348.995C467.845 350.369 467.112 353.051 470.112 353.17C473.112 353.289 493.939 349.093 495.331 359.118C496.723 369.143 476.176 384.836 473.964 386.598C471.752 388.361 471.482 389.605 472.119 390.924C472.756 392.244 479.619 390.167 485.597 389.215C491.576 388.264 498.665 388.221 498.989 394.071C499.313 399.922 489.126 415.614 456.806 429.295L441.418 434.648L428.867 424.126C403.389 400.03 399.332 381.797 401.673 376.389C404.015 370.982 410.652 373.556 415.907 376.541C421.162 379.525 426.893 383.884 427.95 382.867C429.008 381.851 429.191 380.585 427.734 378.163C426.277 375.74 412.508 353.83 417.31 344.929C422.112 336.028 440.177 347.254 443.015 348.173C445.853 349.093 446.101 346.313 445.486 344.637C444.871 342.961 437.727 324.089 434.177 315.697C430.626 307.304 430.648 300.783 435.526 297.701C440.22 294.738 446.727 301.691 450.633 303.692C454.54 305.693 456.029 300.448 456.029 300.448C456.029 300.448 456.558 287.146 461.133 263.018C465.709 238.89 476.381 242.286 476.381 242.286" fill="#EBEBEB"/>
<path d="M441.763 438.617C445.054 420.881 450.396 389.259 455.101 362.124C459.806 334.99 464.101 310.419 467.262 292.693C468.87 283.836 470.176 276.655 471.082 271.68C471.525 269.214 471.87 267.289 472.162 265.959C472.27 265.321 472.356 264.878 472.41 264.467C472.464 264.056 472.485 263.958 472.485 263.958C472.485 263.958 472.485 264.132 472.367 264.456C472.248 264.78 472.183 265.3 472.054 265.938C471.795 267.268 471.417 269.182 470.975 271.637C470.003 276.59 468.644 283.76 466.993 292.628C463.755 310.376 459.352 334.914 454.647 362.038C449.942 389.161 444.601 420.805 441.363 438.552" fill="#E0E0E0"/>
<path d="M483.094 314.972C482.739 315.146 482.406 315.36 482.101 315.61C481.486 316.054 480.601 316.692 479.533 317.524C477.374 319.179 474.472 321.537 471.31 324.186L463.227 331.021L460.788 333.065C460.471 333.299 460.179 333.563 459.914 333.855C460.27 333.688 460.604 333.478 460.907 333.228C461.533 332.784 462.407 332.146 463.475 331.292C465.633 329.626 468.482 327.236 471.655 324.576L479.77 317.806L482.241 315.772C482.553 315.537 482.838 315.268 483.094 314.972Z" fill="#E0E0E0"/>
<path d="M458.523 333.195C458.63 333.108 454.055 326.879 448.303 319.287C442.551 311.695 437.782 305.606 437.674 305.693C437.566 305.779 442.141 311.998 447.893 319.601C453.645 327.203 458.415 333.281 458.523 333.195Z" fill="#E0E0E0"/>
<path d="M453.158 375.178C452.879 374.886 452.568 374.629 452.23 374.41L449.597 372.463C447.384 370.808 444.341 368.527 441.061 365.866C437.78 363.206 434.899 360.729 432.827 358.901L430.367 356.738C430.079 356.456 429.764 356.203 429.428 355.981C429.664 356.31 429.935 356.611 430.237 356.879C430.777 357.431 431.575 358.209 432.59 359.161C434.608 361.054 437.456 363.606 440.748 366.255C444.039 368.905 447.125 371.165 449.381 372.744C450.525 373.523 451.453 374.15 452.1 374.561C452.427 374.809 452.782 375.016 453.158 375.178Z" fill="#E0E0E0"/>
<path d="M479.004 363.595C478.632 363.668 478.27 363.784 477.924 363.941L475.119 365.077C472.755 366.039 469.507 367.413 465.935 368.97C462.363 370.527 459.137 371.944 456.817 372.993L454.097 374.226C453.751 374.365 453.422 374.543 453.115 374.756C453.487 374.681 453.849 374.565 454.194 374.41L457 373.329C459.363 372.355 462.601 370.982 466.183 369.435C469.766 367.889 472.982 366.461 475.302 365.401L478.043 364.125C478.382 363.985 478.704 363.807 479.004 363.595Z" fill="#E0E0E0"/>
<path d="M478.96 401.263C478.498 401.373 478.046 401.525 477.611 401.717L474.018 403.156C470.985 404.378 466.809 406.108 462.212 408.044C457.615 409.98 453.46 411.775 450.46 413.084L446.921 414.663C446.488 414.844 446.073 415.065 445.68 415.322C446.143 415.216 446.595 415.064 447.029 414.868L450.633 413.43C453.665 412.208 457.841 410.477 462.439 408.542C467.036 406.606 471.19 404.821 474.19 403.502L477.73 401.923C478.161 401.746 478.574 401.525 478.96 401.263Z" fill="#E0E0E0"/>
<path d="M446.349 414.749C445.998 414.377 445.611 414.04 445.194 413.743L441.957 411.148C439.227 408.985 435.482 405.913 431.403 402.442C427.324 398.97 423.73 395.737 421.14 393.368L418.076 390.578C417.72 390.213 417.33 389.883 416.91 389.594C417.242 389.981 417.603 390.343 417.989 390.675C418.68 391.378 419.684 392.373 420.957 393.584C423.482 396.018 427.054 399.305 431.122 402.788C435.191 406.27 439 409.277 441.795 411.44C443.187 412.521 444.331 413.332 445.129 413.905C445.515 414.215 445.923 414.497 446.349 414.749Z" fill="#E0E0E0"/>
<path d="M93.8842 91.2464C92.6972 85.4713 96.3554 79.9017 102.701 78.6148C104.082 78.2823 105.517 78.2343 106.917 78.4736C108.318 78.7129 109.655 79.2346 110.849 80.007C112.042 80.7795 113.067 81.7867 113.861 82.9676C114.654 84.1485 115.201 85.4786 115.467 86.8773C115.765 88.2754 115.78 89.7194 115.509 91.1233C115.239 92.5271 114.689 93.8619 113.892 95.048C113.095 96.234 112.068 97.247 110.872 98.0265C109.676 98.806 108.336 99.3359 106.931 99.5846C105.527 99.9167 104.071 99.9632 102.648 99.7215C101.226 99.4798 99.8664 98.9547 98.6501 98.1774C97.4338 97.4 96.3853 96.3861 95.5667 95.1956C94.7481 94.0052 94.176 92.6623 93.8842 91.2464ZM77.6973 5.98272L97.6396 1.93799L107.028 65.9182L93.6576 68.6219L77.6973 5.98272Z" fill="#EBEBEB"/>
<path d="M111.604 99.7795C110.272 100.58 108.812 101.143 107.288 101.445C103.892 102.177 100.345 101.54 97.4137 99.6714C96.0236 98.757 94.83 97.5731 93.9034 96.1894C92.9767 94.8057 92.3357 93.2501 92.0181 91.6144C90.6152 84.6172 95.0397 78.2257 102.335 76.7549C103.959 76.3688 105.645 76.3165 107.291 76.6012C108.936 76.8858 110.507 77.5014 111.909 78.4109C113.31 79.3204 114.514 80.505 115.446 81.8932C116.379 83.2814 117.021 84.8445 117.334 86.4882C118.019 89.7612 117.379 93.1729 115.554 95.9727C114.536 97.5198 113.187 98.8202 111.604 99.7795ZM99.7339 81.7513C98.1947 82.6588 96.9797 84.0288 96.2611 85.6671C95.5425 87.3054 95.3568 89.1289 95.7303 90.879C95.9497 92.0201 96.3963 93.1052 97.0434 94.0695C97.6905 95.0339 98.5247 95.8577 99.4965 96.4918C101.591 97.8186 104.124 98.2618 106.543 97.7247C107.72 97.5104 108.841 97.0622 109.842 96.4065C110.843 95.7509 111.703 94.901 112.37 93.9071C113.002 92.9343 113.436 91.8459 113.648 90.7045C113.859 89.5631 113.843 88.3912 113.601 87.256C113.38 86.1054 112.928 85.0118 112.272 84.0415C111.617 83.0712 110.771 82.2444 109.788 81.6114C108.804 80.9783 107.702 80.5521 106.549 80.3586C105.395 80.1652 104.215 80.2085 103.079 80.486C101.915 80.7171 100.798 81.1449 99.777 81.7513H99.7339ZM107.968 67.5407C107.778 67.6549 107.57 67.7354 107.353 67.7786L93.9929 70.4823C93.5239 70.5653 93.0409 70.4677 92.6407 70.209C92.2405 69.9503 91.9526 69.5496 91.8346 69.0872L75.8312 6.44798C75.7659 6.1991 75.7523 5.93946 75.7911 5.6851C75.83 5.43074 75.9205 5.18707 76.057 4.96915C76.1936 4.75123 76.3732 4.56368 76.585 4.41811C76.7967 4.27254 77.036 4.17203 77.288 4.1228L97.2627 0.0348164C97.5178 -0.0146305 97.7803 -0.0113772 98.0342 0.0443773C98.2881 0.100132 98.5279 0.207215 98.739 0.359072C98.9501 0.51093 99.1281 0.704367 99.2621 0.927547C99.396 1.15073 99.4831 1.39895 99.518 1.65703L108.896 65.6373C108.954 66.0067 108.9 66.3851 108.743 66.7242C108.585 67.0632 108.33 67.3474 108.011 67.5407H107.968ZM95.0181 66.3943L104.86 64.4152L96.0432 4.19851L79.9858 7.44294L95.0181 66.3943Z" fill="#EBEBEB"/>
<path d="M133.185 83.9466C133.483 83.2256 133.924 82.5727 134.481 82.0272C135.039 81.4818 135.7 81.0552 136.426 80.7732C137.153 80.4912 137.928 80.3596 138.707 80.3864C139.485 80.4133 140.25 80.5979 140.955 80.9293C141.673 81.2005 142.329 81.6144 142.884 82.1461C143.439 82.6778 143.88 83.3163 144.183 84.0233C144.485 84.7303 144.642 85.4913 144.643 86.2605C144.645 87.0297 144.492 87.7913 144.192 88.4996C143.905 89.2189 143.476 89.8727 142.931 90.4223C142.385 90.9719 141.736 91.4059 141.02 91.6986C140.304 91.9912 139.536 92.1365 138.763 92.1257C137.99 92.1149 137.227 91.9484 136.52 91.6359C135.79 91.3604 135.122 90.9406 134.557 90.4017C133.991 89.8627 133.54 89.2155 133.229 88.4984C132.918 87.7812 132.754 87.0088 132.746 86.2269C132.739 85.4451 132.888 84.6696 133.185 83.9466ZM151.53 40.6875L161.739 44.9053L146.761 76.5277L139.93 73.705L151.53 40.6875Z" fill="#EBEBEB"/>
<path d="M138.593 93.1499C137.755 93.1031 136.931 92.9167 136.154 92.5984C134.405 91.9026 133 90.542 132.248 88.8132C131.634 87.3879 131.498 85.8014 131.861 84.2923C132.224 82.7832 133.066 81.4329 134.26 80.4442C135.455 79.4556 136.937 78.8822 138.484 78.81C140.031 78.7378 141.56 79.1708 142.841 80.0439C144.122 80.9171 145.085 82.1832 145.586 83.652C146.088 85.1208 146.1 86.713 145.621 88.1893C145.142 89.6656 144.198 90.9462 142.931 91.8388C141.663 92.7314 140.141 93.1877 138.593 93.1391V93.1499ZM138.701 81.4591C137.728 81.4015 136.763 81.6541 135.943 82.1806C135.123 82.7072 134.49 83.4806 134.136 84.3899C133.891 84.9698 133.764 85.5932 133.764 86.223C133.764 86.8529 133.891 87.4763 134.136 88.0562C134.679 89.2907 135.688 90.2591 136.942 90.749C137.538 91.0004 138.178 91.1298 138.825 91.1298C139.472 91.1298 140.112 91.0004 140.708 90.749C141.578 90.3757 142.318 89.7512 142.833 88.9551C143.348 88.159 143.615 87.2273 143.6 86.2786C143.585 85.3299 143.289 84.4072 142.749 83.6279C142.209 82.8486 141.449 82.248 140.568 81.9025C139.975 81.6486 139.344 81.4987 138.701 81.4591ZM146.686 77.555C146.568 77.5466 146.452 77.5211 146.341 77.4793L139.51 74.6566C139.273 74.5476 139.083 74.356 138.976 74.1173C138.869 73.8787 138.851 73.6092 138.927 73.3589L150.593 40.3305C150.699 40.074 150.899 39.8681 151.152 39.7553C151.405 39.6426 151.692 39.6317 151.952 39.7249L162.161 43.9427C162.291 43.9954 162.408 44.0741 162.506 44.1739C162.604 44.2738 162.681 44.3927 162.732 44.5234C162.782 44.6541 162.805 44.7938 162.8 44.9338C162.795 45.0739 162.761 45.2113 162.701 45.3378L147.658 76.971C147.566 77.149 147.426 77.2978 147.255 77.401C147.083 77.5041 146.886 77.5574 146.686 77.555ZM141.194 73.1209L146.222 75.1974L160.38 45.4567L152.158 42.0393L141.194 73.1209Z" fill="#EBEBEB"/>
<path d="M47.8048 115.839H424.507C429.634 115.842 434.55 117.885 438.174 121.519C441.798 125.154 443.834 130.081 443.834 135.219V441.494H28.4668V135.219C28.4668 130.08 30.5042 125.15 34.1308 121.516C37.7573 117.881 42.676 115.839 47.8048 115.839Z" fill="#FAFAFA"/>
<path d="M384.376 363.833C384.376 363.995 317.362 364.114 234.711 364.114C152.061 364.114 85.0254 363.995 85.0254 363.833C85.0254 363.671 152.028 363.552 234.711 363.552C317.394 363.552 384.376 363.682 384.376 363.833Z" fill="#263238"/>
<path d="M356.879 382.499C356.879 382.662 305.663 382.781 242.491 382.781C179.319 382.781 128.104 382.662 128.104 382.499C128.104 382.337 179.297 382.218 242.491 382.218C305.685 382.218 356.879 382.348 356.879 382.499Z" fill="#263238"/>
<path d="M443.834 115.839H28.4668V242.124H443.834V115.839Z" fill="#5B2F91"/>
<path d="M444.374 442.035H27.9277V115.299H444.374V442.035ZM29.0069 440.953H443.295V116.38H29.0069V440.953Z" fill="#263238"/>
<path d="M200.264 282.506L190.94 311.068H183.861L177.592 291.72L171.117 311.068H164.027L154.66 282.506H161.502L167.977 302.578L174.7 282.506H180.807L187.282 302.74L193.919 282.506H200.264Z" fill="#263238"/>
<path d="M221.222 298.523V311.068H215.276V308.332C214.099 310.332 211.822 311.392 208.607 311.392C203.47 311.392 200.416 308.537 200.416 304.741C200.416 300.945 203.146 298.177 209.826 298.177H214.876C214.876 295.441 213.247 293.851 209.826 293.851C207.558 293.83 205.344 294.543 203.513 295.884L201.236 291.439C204.052 289.636 207.338 288.714 210.679 288.789C217.38 288.789 221.222 291.893 221.222 298.523ZM214.876 304.114V301.864H210.56C207.581 301.864 206.653 302.946 206.653 304.438C206.653 305.931 207.992 307.088 210.236 307.088C211.225 307.152 212.208 306.901 213.045 306.37C213.883 305.84 214.531 305.058 214.898 304.136L214.876 304.114Z" fill="#263238"/>
<path d="M240.646 288.79V294.662C240.117 294.662 239.707 294.586 239.221 294.586C235.714 294.586 233.394 296.5 233.394 300.707V311.068H227.049V289.114H233.092V292.034C234.603 289.871 237.214 288.79 240.646 288.79Z" fill="#263238"/>
<path d="M266.782 298.523V311.068H260.426V299.475C260.426 295.927 258.796 294.294 255.99 294.294C252.936 294.294 250.735 296.176 250.735 300.21V311.025H244.379V289.114H250.444V291.688C251.382 290.723 252.513 289.966 253.762 289.467C255.012 288.968 256.351 288.737 257.695 288.79C262.864 288.79 266.782 291.807 266.782 298.523Z" fill="#263238"/>
<path d="M271.746 282.506C271.756 282.007 271.868 281.516 272.075 281.062C272.283 280.608 272.581 280.202 272.951 279.869C273.321 279.535 273.756 279.281 274.228 279.123C274.7 278.965 275.2 278.905 275.696 278.948C278.059 278.948 279.645 280.419 279.645 282.376C279.56 283.357 279.115 284.272 278.397 284.943C277.678 285.615 276.736 285.995 275.754 286.011C274.772 286.028 273.818 285.678 273.078 285.031C272.338 284.383 271.863 283.484 271.746 282.506ZM272.523 289.114H278.879V311.068H272.523V289.114Z" fill="#263238"/>
<path d="M307.173 298.523V311.068H300.828V299.474C300.828 295.927 299.198 294.294 296.382 294.294C293.328 294.294 291.137 296.176 291.137 300.21V311.025H284.781V289.114H290.846V291.688C291.784 290.722 292.915 289.964 294.164 289.465C295.413 288.966 296.754 288.735 298.098 288.789C303.234 288.789 307.173 291.807 307.173 298.523Z" fill="#263238"/>
<path d="M335.77 289.114V307.391C335.77 315.556 331.368 319.287 323.468 319.287C319.314 319.287 315.289 318.27 312.677 316.27L315.202 311.695C317.45 313.332 320.161 314.207 322.94 314.193C327.418 314.193 329.414 312.149 329.414 308.191V307.25C328.522 308.173 327.443 308.895 326.251 309.367C325.058 309.838 323.778 310.05 322.497 309.986C316.422 309.986 311.533 305.779 311.533 299.377C311.533 292.975 316.422 288.768 322.497 288.768C323.865 288.688 325.231 288.931 326.489 289.475C327.746 290.02 328.859 290.852 329.738 291.904V289.092L335.77 289.114ZM329.501 299.398C329.501 296.154 327.094 293.991 323.749 293.991C320.404 293.991 317.976 296.154 317.976 299.398C317.976 302.643 320.414 304.806 323.749 304.806C327.083 304.806 329.501 302.621 329.501 299.398Z" fill="#263238"/>
<path d="M340.734 307.683C340.823 306.704 341.274 305.795 341.998 305.133C342.721 304.47 343.666 304.103 344.646 304.103C345.626 304.103 346.571 304.47 347.295 305.133C348.019 305.795 348.469 306.704 348.558 307.683C348.505 308.687 348.07 309.632 347.342 310.325C346.615 311.017 345.65 311.402 344.646 311.402C343.643 311.402 342.678 311.017 341.95 310.325C341.222 309.632 340.787 308.687 340.734 307.683ZM340.864 282.506H348.418L347.155 301.151H342.083L340.864 282.506Z" fill="#263238"/>
<path d="M192.895 337.067H186.69L185.363 340.03H184.154L189.205 328.945H190.359L195.42 340.03H194.244L192.895 337.067ZM192.464 336.115L189.809 330.167L187.154 336.115H192.464Z" fill="#263238"/>
<path d="M201.354 339.522C200.858 339.925 200.233 340.136 199.595 340.117C199.266 340.161 198.93 340.129 198.616 340.022C198.301 339.916 198.015 339.738 197.78 339.503C197.545 339.267 197.367 338.98 197.261 338.665C197.155 338.349 197.122 338.013 197.167 337.683V332.654H195.678V331.703H197.167V329.886H198.246V331.713H200.771V332.665H198.246V337.64C198.218 337.839 198.234 338.042 198.295 338.233C198.356 338.425 198.459 338.6 198.598 338.746C198.736 338.891 198.905 339.004 199.093 339.074C199.28 339.145 199.482 339.172 199.681 339.154C200.129 339.166 200.565 339.016 200.911 338.732L201.354 339.522Z" fill="#263238"/>
<path d="M207.549 339.522C207.057 339.924 206.436 340.135 205.801 340.117C205.471 340.163 205.134 340.132 204.818 340.027C204.502 339.921 204.214 339.743 203.978 339.507C203.742 339.272 203.563 338.984 203.456 338.668C203.35 338.351 203.317 338.014 203.362 337.683V332.654H201.873V331.703H203.362V329.886H204.441V331.713H206.967V332.665H204.441V337.64C204.413 337.839 204.43 338.042 204.49 338.233C204.551 338.425 204.655 338.6 204.793 338.746C204.931 338.891 205.1 339.004 205.288 339.074C205.476 339.145 205.677 339.172 205.877 339.154C206.327 339.165 206.767 339.016 207.118 338.732L207.549 339.522Z" fill="#263238"/>
<path d="M216.528 336.212H209.578C209.626 337.026 209.993 337.788 210.6 338.331C211.207 338.875 212.003 339.155 212.816 339.11C213.294 339.13 213.77 339.043 214.21 338.856C214.651 338.669 215.044 338.387 215.363 338.029L215.999 338.764C215.4 339.382 214.633 339.81 213.793 339.996C212.954 340.181 212.078 340.117 211.275 339.81C210.472 339.502 209.776 338.966 209.273 338.268C208.77 337.569 208.482 336.738 208.445 335.877C208.445 334.801 208.872 333.77 209.631 333.009C210.389 332.249 211.419 331.821 212.492 331.821C213.565 331.821 214.595 332.249 215.354 333.009C216.112 333.77 216.539 334.801 216.539 335.877C216.55 335.963 216.528 336.082 216.528 336.212ZM209.578 335.379H215.47C215.47 334.596 215.16 333.845 214.608 333.292C214.055 332.738 213.306 332.427 212.524 332.427C211.743 332.427 210.994 332.738 210.441 333.292C209.889 333.845 209.578 334.596 209.578 335.379Z" fill="#263238"/>
<path d="M226.498 335.195V340.03H225.419V335.293C225.471 334.944 225.444 334.589 225.339 334.253C225.234 333.917 225.054 333.609 224.813 333.353C224.571 333.097 224.275 332.899 223.947 332.774C223.618 332.649 223.266 332.601 222.916 332.632C222.518 332.603 222.12 332.662 221.748 332.804C221.376 332.946 221.039 333.168 220.763 333.455C220.486 333.742 220.275 334.086 220.145 334.464C220.016 334.841 219.971 335.242 220.013 335.639V339.965H218.934V331.637H220.013V333.173C220.35 332.648 220.821 332.223 221.376 331.942C221.932 331.66 222.553 331.533 223.175 331.572C223.641 331.557 224.105 331.642 224.535 331.823C224.965 332.004 225.351 332.275 225.666 332.619C225.982 332.963 226.22 333.372 226.363 333.816C226.507 334.261 226.553 334.731 226.498 335.195Z" fill="#263238"/>
<path d="M233.922 339.522C233.43 339.924 232.809 340.135 232.174 340.117C231.844 340.163 231.508 340.132 231.191 340.027C230.875 339.921 230.587 339.743 230.351 339.507C230.115 339.272 229.936 338.984 229.829 338.668C229.723 338.351 229.69 338.014 229.735 337.683V332.654H228.246V331.703H229.735V329.886H230.814V331.713H233.35V332.665H230.814V337.64C230.786 337.839 230.803 338.042 230.864 338.233C230.924 338.425 231.028 338.6 231.166 338.746C231.304 338.891 231.473 339.004 231.661 339.074C231.849 339.145 232.05 339.172 232.25 339.154C232.7 339.165 233.14 339.016 233.491 338.732L233.922 339.522Z" fill="#263238"/>
<path d="M235.715 329.074C235.72 328.86 235.809 328.656 235.963 328.507C236.116 328.357 236.321 328.274 236.535 328.274C236.747 328.274 236.95 328.358 237.1 328.508C237.249 328.658 237.334 328.862 237.334 329.074C237.334 329.286 237.249 329.49 237.1 329.64C236.95 329.79 236.747 329.874 236.535 329.874C236.429 329.876 236.323 329.856 236.224 329.817C236.126 329.777 236.036 329.719 235.96 329.645C235.883 329.57 235.823 329.482 235.781 329.384C235.739 329.286 235.716 329.181 235.715 329.074ZM235.963 331.702H237.042V340.03H235.963V331.702Z" fill="#263238"/>
<path d="M239.384 335.866C239.386 335.029 239.636 334.211 240.101 333.515C240.567 332.82 241.228 332.278 242 331.958C242.773 331.639 243.622 331.556 244.442 331.72C245.261 331.884 246.014 332.287 246.605 332.879C247.196 333.472 247.599 334.226 247.762 335.047C247.926 335.869 247.843 336.72 247.524 337.494C247.205 338.269 246.665 338.931 245.971 339.397C245.277 339.864 244.46 340.114 243.625 340.116C243.062 340.138 242.501 340.042 241.977 339.836C241.453 339.63 240.977 339.318 240.579 338.919C240.181 338.52 239.869 338.043 239.663 337.518C239.458 336.992 239.363 336.43 239.384 335.866ZM246.7 335.866C246.673 335.258 246.467 334.672 246.11 334.18C245.752 333.688 245.258 333.312 244.689 333.099C244.12 332.886 243.501 332.846 242.91 332.983C242.318 333.12 241.779 333.428 241.361 333.869C240.943 334.31 240.663 334.865 240.557 335.465C240.451 336.064 240.523 336.681 240.764 337.24C241.005 337.798 241.405 338.274 241.914 338.606C242.422 338.939 243.017 339.114 243.625 339.111C244.045 339.119 244.462 339.04 244.85 338.878C245.238 338.716 245.588 338.474 245.877 338.169C246.167 337.863 246.389 337.501 246.531 337.105C246.673 336.708 246.73 336.286 246.7 335.866Z" fill="#263238"/>
<path d="M257.782 335.195V340.03H256.702V335.293C256.754 334.945 256.727 334.591 256.622 334.256C256.518 333.92 256.339 333.613 256.099 333.357C255.859 333.101 255.565 332.903 255.237 332.778C254.91 332.652 254.559 332.602 254.21 332.632C253.812 332.602 253.412 332.659 253.038 332.8C252.665 332.942 252.327 333.164 252.049 333.451C251.771 333.738 251.559 334.083 251.429 334.461C251.299 334.839 251.254 335.241 251.296 335.639V339.965H250.217V331.637H251.296V333.173C251.633 332.648 252.104 332.223 252.66 331.942C253.215 331.66 253.836 331.533 254.458 331.572C254.927 331.545 255.396 331.623 255.832 331.8C256.267 331.977 256.658 332.248 256.976 332.595C257.294 332.941 257.531 333.355 257.671 333.804C257.81 334.254 257.848 334.729 257.782 335.195Z" fill="#263238"/>
<path d="M273.408 335.866C273.437 336.424 273.35 336.981 273.153 337.503C272.956 338.025 272.654 338.501 272.264 338.9C271.875 339.299 271.408 339.613 270.891 339.823C270.375 340.032 269.821 340.132 269.264 340.116C268.64 340.136 268.021 339.994 267.467 339.704C266.913 339.414 266.443 338.986 266.103 338.462V343.101H265.023V331.702H266.103V333.346C266.443 332.8 266.923 332.354 267.491 332.054C268.06 331.754 268.698 331.61 269.34 331.638C269.889 331.631 270.433 331.737 270.94 331.949C271.446 332.161 271.904 332.475 272.285 332.871C272.667 333.267 272.963 333.737 273.156 334.252C273.349 334.767 273.435 335.317 273.408 335.866ZM272.329 335.866C272.302 335.259 272.097 334.673 271.74 334.182C271.384 333.69 270.891 333.314 270.323 333.101C269.755 332.887 269.138 332.845 268.546 332.981C267.955 333.116 267.417 333.422 266.997 333.861C266.578 334.3 266.297 334.853 266.188 335.451C266.08 336.049 266.149 336.666 266.387 337.225C266.625 337.784 267.021 338.26 267.527 338.596C268.033 338.931 268.626 339.11 269.232 339.111C269.649 339.111 270.062 339.026 270.445 338.861C270.828 338.696 271.173 338.454 271.459 338.15C271.745 337.846 271.966 337.487 272.108 337.094C272.251 336.701 272.311 336.283 272.286 335.866H272.329Z" fill="#263238"/>
<path d="M275.707 328.274H276.786V340.03H275.707V328.274Z" fill="#263238"/>
<path d="M287.2 336.212H280.24C280.29 337.025 280.658 337.785 281.264 338.328C281.87 338.871 282.665 339.152 283.477 339.11C283.955 339.13 284.431 339.043 284.871 338.856C285.312 338.669 285.705 338.386 286.024 338.029L286.65 338.764C286.05 339.382 285.283 339.81 284.444 339.995C283.604 340.181 282.729 340.116 281.925 339.809C281.122 339.502 280.426 338.966 279.923 338.267C279.42 337.569 279.133 336.738 279.096 335.877C279.066 335.326 279.15 334.776 279.342 334.259C279.534 333.743 279.83 333.272 280.211 332.875C280.593 332.478 281.052 332.164 281.56 331.953C282.068 331.742 282.614 331.638 283.164 331.648C283.712 331.638 284.256 331.742 284.762 331.953C285.268 332.165 285.725 332.479 286.103 332.877C286.481 333.274 286.773 333.746 286.96 334.263C287.147 334.779 287.225 335.329 287.189 335.877C287.211 335.963 287.2 336.082 287.2 336.212ZM280.24 335.379H286.142C286.097 334.626 285.766 333.918 285.218 333.4C284.669 332.883 283.944 332.595 283.191 332.595C282.438 332.595 281.713 332.883 281.164 333.4C280.616 333.918 280.285 334.626 280.24 335.379Z" fill="#263238"/>
<path d="M295.551 334.871V340.03H294.472V338.732C294.162 339.197 293.733 339.571 293.23 339.815C292.728 340.058 292.169 340.162 291.612 340.116C289.735 340.116 288.58 339.132 288.58 337.683C288.58 336.407 289.4 335.325 291.817 335.325H294.461V334.817C294.461 333.39 293.652 332.654 292.098 332.654C291.092 332.646 290.115 332.99 289.335 333.627L288.828 332.795C289.799 332.053 290.997 331.671 292.217 331.713C294.332 331.638 295.551 332.708 295.551 334.871ZM294.472 337.532V336.169H291.861C290.253 336.169 289.702 336.796 289.702 337.651C289.702 338.505 290.479 339.23 291.807 339.23C292.366 339.259 292.921 339.11 293.392 338.806C293.863 338.501 294.225 338.055 294.429 337.532H294.472Z" fill="#263238"/>
<path d="M297.451 339.078L297.958 338.191C298.818 338.814 299.854 339.144 300.915 339.132C302.491 339.132 303.138 338.591 303.138 337.769C303.138 335.606 297.743 337.304 297.743 334.017C297.743 332.654 298.908 331.637 300.98 331.637C302.015 331.622 303.034 331.891 303.926 332.416L303.43 333.314C302.705 332.829 301.85 332.58 300.98 332.6C299.48 332.6 298.822 333.184 298.822 333.984C298.822 336.234 304.217 334.536 304.217 337.737C304.217 339.175 302.955 340.116 300.786 340.116C299.591 340.143 298.42 339.778 297.451 339.078Z" fill="#263238"/>
<path d="M313.574 336.212H306.624C306.646 336.616 306.748 337.011 306.922 337.375C307.097 337.739 307.342 338.065 307.643 338.335C307.943 338.604 308.294 338.811 308.675 338.944C309.056 339.077 309.459 339.134 309.862 339.11C310.34 339.13 310.816 339.043 311.256 338.856C311.697 338.669 312.09 338.387 312.408 338.029L313.034 338.764C312.437 339.387 311.67 339.819 310.829 340.008C309.987 340.197 309.11 340.133 308.304 339.825C307.499 339.517 306.802 338.979 306.3 338.277C305.798 337.575 305.513 336.74 305.48 335.877C305.48 334.801 305.907 333.77 306.666 333.009C307.425 332.249 308.454 331.821 309.527 331.821C310.6 331.821 311.63 332.249 312.389 333.009C313.148 333.77 313.574 334.801 313.574 335.877C313.596 335.963 313.574 336.082 313.574 336.212ZM306.624 335.379H312.516C312.516 334.596 312.206 333.845 311.654 333.292C311.101 332.738 310.352 332.427 309.57 332.427C308.789 332.427 308.04 332.738 307.487 333.292C306.935 333.845 306.624 334.596 306.624 335.379Z" fill="#263238"/>
<path d="M209.707 216.72C207.808 216.731 205.939 216.24 204.289 215.295C202.64 214.351 201.268 212.986 200.313 211.34C199.359 209.694 198.854 207.825 198.852 205.921C198.849 204.017 199.348 202.146 200.297 200.498L231.376 146.175C232.312 144.512 233.674 143.13 235.32 142.17C236.966 141.21 238.838 140.707 240.743 140.713C242.643 140.708 244.51 141.205 246.157 142.154C247.804 143.104 249.171 144.472 250.121 146.121L281.523 200.249C282.495 201.895 283.013 203.77 283.026 205.683C283.038 207.596 282.544 209.478 281.594 211.137C280.644 212.796 279.272 214.172 277.618 215.127C275.964 216.081 274.087 216.578 272.178 216.568L209.707 216.763V216.72ZM240.776 143.871C239.44 143.87 238.129 144.224 236.974 144.897C235.82 145.569 234.864 146.536 234.204 147.7L203.136 202.022C202.457 203.178 202.097 204.494 202.092 205.836C202.087 207.177 202.438 208.495 203.109 209.656C203.78 210.817 204.746 211.778 205.909 212.442C207.073 213.105 208.391 213.447 209.729 213.432L272.2 213.237C273.539 213.248 274.857 212.901 276.019 212.233C277.181 211.565 278.145 210.599 278.811 209.435C279.478 208.27 279.823 206.949 279.813 205.607C279.802 204.264 279.435 202.949 278.75 201.795L247.347 147.721C246.69 146.554 245.735 145.583 244.581 144.906C243.426 144.23 242.113 143.873 240.776 143.871Z" fill="white"/>
<path d="M236.459 199.146C236.456 198.604 236.562 198.068 236.771 197.569C236.981 197.07 237.289 196.619 237.677 196.243C238.066 195.867 238.526 195.574 239.031 195.381C239.536 195.189 240.074 195.101 240.614 195.123C241.147 195.098 241.679 195.182 242.178 195.37C242.678 195.558 243.134 195.846 243.518 196.216C243.903 196.586 244.209 197.031 244.416 197.524C244.624 198.016 244.729 198.546 244.725 199.081C244.735 199.618 244.638 200.152 244.437 200.651C244.237 201.149 243.939 201.602 243.56 201.983C243.182 202.363 242.73 202.663 242.233 202.865C241.736 203.067 241.204 203.167 240.668 203.158C240.126 203.181 239.585 203.095 239.078 202.904C238.57 202.713 238.106 202.422 237.713 202.048C237.32 201.673 237.007 201.223 236.791 200.725C236.576 200.226 236.463 199.689 236.459 199.146ZM236.589 166.528H244.24L243.16 190.797H238.045L236.589 166.528Z" fill="white"/>
<path d="M201.798 228.994C201.314 228.877 200.844 228.71 200.395 228.497C199.147 227.963 197.954 227.307 196.834 226.539C193.079 224.024 190.123 220.482 188.316 216.334C186.509 212.186 185.925 207.606 186.636 203.136C186.845 201.793 187.177 200.471 187.629 199.189C187.769 198.712 187.968 198.254 188.222 197.826C187.712 199.602 187.316 201.408 187.035 203.234C186.438 207.624 187.057 212.094 188.825 216.155C190.593 220.216 193.442 223.711 197.06 226.258C198.58 227.27 200.162 228.184 201.798 228.994Z" fill="white"/>
<path d="M188.415 227.654C188.149 227.506 187.905 227.32 187.692 227.102C187.071 226.558 186.49 225.969 185.955 225.339C184.186 223.254 182.788 220.88 181.822 218.32C180.862 215.757 180.354 213.045 180.322 210.307C180.311 209.479 180.358 208.651 180.462 207.83C180.47 207.526 180.532 207.226 180.645 206.943C180.743 206.943 180.645 208.241 180.721 210.296C181.002 215.68 182.939 220.844 186.268 225.08C187.541 226.702 188.48 227.578 188.415 227.654Z" fill="white"/>
<path d="M297.419 189.986C297.599 190.362 297.737 190.757 297.829 191.165C297.973 191.634 298.092 192.11 298.185 192.592C298.282 193.155 298.444 193.793 298.509 194.506C298.727 196.188 298.796 197.885 298.714 199.579C298.59 201.65 298.261 203.704 297.732 205.711C297.177 207.711 296.429 209.653 295.498 211.507C294.722 213.03 293.808 214.478 292.768 215.833C292.358 216.417 291.894 216.915 291.527 217.326C291.208 217.707 290.865 218.068 290.502 218.407C290.223 218.719 289.903 218.992 289.552 219.218C289.476 219.142 290.782 217.931 292.455 215.628C293.429 214.258 294.292 212.811 295.034 211.302C295.928 209.47 296.651 207.558 297.192 205.592C297.702 203.621 298.038 201.609 298.196 199.579C298.306 197.917 298.278 196.249 298.109 194.593C297.84 191.727 297.311 190.018 297.419 189.986Z" fill="white"/>
<path d="M304.486 201.893C304.665 202.826 304.716 203.779 304.637 204.726C304.546 207.028 304.184 209.312 303.558 211.529C302.937 213.743 302.06 215.877 300.947 217.888C300.526 218.744 299.988 219.537 299.35 220.245C299.713 219.374 300.128 218.526 300.591 217.704C302.596 213.643 303.823 209.241 304.206 204.726C304.243 203.777 304.337 202.831 304.486 201.893Z" fill="white"/>
<path d="M28.716 281.078C28.716 281.078 52.1546 274.828 53.5359 275.963C60.7337 281.706 98.7406 277.207 98.7406 277.207L135.01 287.47C135.01 287.47 140.891 331.01 144.884 348.033C147.539 359.356 137.568 376.378 137.568 376.378L124.769 422.882L135.83 441.202H28.6836V281.143L28.716 281.078Z" fill="#5B2F91"/>
<path d="M121.996 331.151L121.058 331.248C120.442 331.302 119.536 331.356 118.371 331.508C115.076 331.883 111.802 332.425 108.561 333.13C104.439 333.963 99.5937 335.196 94.1872 336.504C91.4894 337.164 88.6513 337.834 85.6837 338.429C84.1945 338.71 82.6945 339.035 81.119 339.175C80.7305 339.175 80.342 339.284 79.9428 339.305H78.7557C77.9679 339.305 77.1694 339.37 76.36 339.305C70.3292 338.974 64.3369 338.135 58.4465 336.796C53.0509 335.715 48.1408 334.514 44.0293 333.617C39.9179 332.719 36.6049 332.038 34.3172 331.681C33.1625 331.475 32.256 331.389 31.6517 331.291C31.0474 331.194 30.7129 331.151 30.7129 331.151C30.7129 331.151 32.0186 331.216 34.3388 331.551C36.6589 331.886 40.015 332.514 44.1265 333.39C48.2379 334.266 53.1156 335.379 58.5544 336.493C64.4299 337.808 70.4032 338.636 76.414 338.97C77.2126 339.024 78.0003 338.97 78.7881 338.97H79.9643C80.3636 338.97 80.7413 338.883 81.1298 338.84C82.6729 338.7 84.1837 338.386 85.6621 338.105C88.6189 337.51 91.4571 336.85 94.1657 336.201C99.5613 334.904 104.428 333.703 108.55 332.892C112.973 331.916 117.472 331.333 121.996 331.151Z" fill="#FAFAFA"/>
<path d="M126.613 414.403C126.613 414.403 126.311 414.219 125.772 413.841C125.232 413.462 124.423 412.9 123.365 412.229C120.343 410.357 117.122 408.83 113.761 407.676C108.773 405.97 103.555 405.033 98.2862 404.897C91.8363 404.969 85.3995 405.496 79.0237 406.476C72.6292 407.433 66.1885 408.05 59.7289 408.325C54.4406 408.495 49.1518 408.004 43.9844 406.865C40.5049 406.07 37.145 404.82 33.9917 403.145C32.9126 402.528 32.0385 402.063 31.4989 401.642C30.9593 401.22 30.668 401.068 30.668 401.068C30.668 401.068 30.9701 401.231 31.5421 401.577C32.114 401.923 32.9449 402.431 34.0456 403.026C37.2066 404.666 40.5652 405.89 44.0384 406.67C49.1884 407.775 54.4546 408.24 59.7181 408.055C66.1665 407.76 72.5957 407.136 78.9806 406.184C85.3741 405.204 91.8294 404.683 98.297 404.626C103.593 404.78 108.833 405.746 113.836 407.492C117.201 408.675 120.42 410.239 123.43 412.154C124.509 412.856 125.297 413.408 125.815 413.83L126.613 414.403Z" fill="#FAFAFA"/>
<path d="M128.126 429.76C128.126 429.76 127.791 429.868 127.144 430.041C126.496 430.214 125.547 430.463 124.349 430.853C120.944 431.952 117.604 433.245 114.345 434.724C109.543 437 104.535 438.811 99.3886 440.132C96.3189 440.829 93.1801 441.173 90.0326 441.159C86.6577 441.107 83.2947 440.745 79.9859 440.078C73.1874 438.693 66.9284 436.552 61.1767 434.897C56.1121 433.332 50.9079 432.264 45.6372 431.707C42.0822 431.361 38.4971 431.488 34.9754 432.085C33.7344 432.345 32.8172 432.55 32.1373 432.745L31.1445 432.994C31.1445 432.994 31.4791 432.875 32.1157 432.68C32.7524 432.486 33.7021 432.237 34.9431 431.956C38.4758 431.301 42.0815 431.138 45.6588 431.469C50.9501 431.994 56.1768 433.041 61.263 434.594C67.0364 436.238 73.2845 438.369 80.0507 439.742C83.3377 440.409 86.6792 440.771 90.0326 440.824C93.1411 440.853 96.2431 440.534 99.2807 439.872C104.417 438.542 109.417 436.732 114.216 434.465C117.489 433.012 120.843 431.752 124.263 430.69C125.482 430.323 126.421 430.095 127.09 429.944L128.126 429.76Z" fill="#FAFAFA"/>
<g opacity="0.3">
<path d="M127.932 411.515C128.46 395.153 131.169 375.957 128.795 360.686C132.119 367.748 135.647 383.527 135.647 383.527C135.082 386.195 134.362 388.827 133.489 391.411C131.665 397.586 129.766 405.362 127.942 411.537" fill="black"/>
</g>
<path d="M134.728 377.406C134.728 377.406 134.394 377.178 133.79 376.724C132.915 376.054 132.003 375.433 131.059 374.864C127.53 372.855 123.665 371.506 119.653 370.884C113.702 369.981 107.644 370.058 101.718 371.111C95.0056 372.193 87.8294 374.302 80.2 376.173C72.5705 378.044 65.0922 379.417 58.2721 378.606C52.2548 377.951 46.4054 376.21 41.006 373.469C38.9371 372.417 36.9654 371.183 35.114 369.781C34.3262 369.121 33.5816 368.516 32.9557 367.921C32.3298 367.326 31.7687 366.731 31.2939 366.191C30.819 365.65 30.4414 365.109 30.096 364.698C29.821 364.318 29.5653 363.925 29.3299 363.519C28.9306 362.871 28.7363 362.524 28.7363 362.524C28.7363 362.524 28.9629 362.849 29.3838 363.487C29.5996 363.79 29.8262 364.212 30.1716 364.633L31.391 366.104C31.8658 366.634 32.4701 367.186 33.0636 367.802C33.6572 368.418 34.4557 368.981 35.2219 369.63C37.0774 371.006 39.0488 372.218 41.1139 373.253C46.4868 375.947 52.2981 377.654 58.2721 378.292C65.0274 379.071 72.495 377.654 80.0921 375.848C87.6891 374.042 94.8977 371.868 101.675 370.809C107.635 369.757 113.728 369.702 119.707 370.646C123.738 371.293 127.613 372.687 131.135 374.756C132.08 375.332 132.985 375.971 133.843 376.67C134.426 377.135 134.728 377.406 134.728 377.406Z" fill="#FAFAFA"/>
<path d="M111.96 414.306C111.763 414.382 111.561 414.443 111.356 414.49L109.629 414.911C108.129 415.258 105.938 415.744 103.241 416.328C97.8449 417.496 90.291 419.01 82.0464 420.535C73.8019 422.06 66.2048 423.293 60.7444 424.126C58.0034 424.547 55.7912 424.861 54.2696 425.067L52.4999 425.283C52.2955 425.307 52.0891 425.307 51.8848 425.283C52.0775 425.202 52.2812 425.151 52.4891 425.131L54.2373 424.807L60.712 423.726C66.1616 422.795 73.6616 421.487 81.9817 419.973C90.3018 418.459 97.7693 416.988 103.187 415.928L109.661 414.684L111.41 414.36C111.59 414.319 111.775 414.301 111.96 414.306Z" fill="#263238"/>
<path d="M113.987 375.935C114.007 376.154 114.007 376.375 113.987 376.594C113.912 377.016 113.88 377.676 113.685 378.455C113.219 380.725 112.495 382.935 111.527 385.041C110.091 388.158 108.244 391.068 106.034 393.693C103.332 396.917 100.231 399.784 96.8077 402.225C90.4939 406.501 83.6665 409.96 76.4877 412.521C73.7575 413.548 71.5345 414.327 70.0129 414.857L68.2324 415.452C68.029 415.536 67.8146 415.591 67.5957 415.614C67.7903 415.509 67.9923 415.419 68.2 415.344L69.9374 414.652L76.4122 412.153C83.5053 409.499 90.2607 406.014 96.5379 401.771C99.9288 399.355 103.01 396.529 105.711 393.357C107.914 390.769 109.771 387.904 111.236 384.835C112.225 382.758 112.995 380.584 113.534 378.346C113.793 376.821 113.933 375.924 113.987 375.935Z" fill="#263238"/>
<path d="M64.0781 156.525C74.5241 146.542 90.6787 140.962 103.715 147.191C112.488 151.388 118.24 159.942 125.858 165.977C131.405 170.367 138.322 173.861 141.096 180.371C143.534 186.125 142.056 192.678 141.225 198.864C140.394 205.05 140.599 212.231 145.272 216.373C147.721 218.536 151.013 219.477 153.797 221.208C159.408 224.668 162.592 231.168 163.606 237.689C164.621 244.211 163.746 250.873 162.862 257.416L135.462 261.742L131.232 254.052L129.29 265.862L94.4232 267.863L64.0781 156.525Z" fill="#263238"/>
<path d="M59.2113 167.664L58.9091 175.234L53.0711 289.038C52.456 302.232 64.6933 313.912 78.7975 314.431C93.042 314.983 99.193 304.449 100.035 291.136C100.92 277.164 102.096 262.456 102.096 262.456C102.096 262.456 120.247 260.552 125.383 237.279C127.93 225.707 128.502 206.511 128.448 190.775C128.438 187.424 127.753 184.109 126.433 181.03C125.113 177.951 123.185 175.171 120.766 172.857C118.347 170.543 115.487 168.742 112.356 167.564C109.226 166.385 105.89 165.853 102.549 165.999L59.2113 167.664Z" fill="#FFBE9D"/>
<path d="M120.258 204.661C120.216 205.447 119.87 206.186 119.294 206.721C118.718 207.256 117.957 207.545 117.172 207.527C116.787 207.535 116.405 207.465 116.047 207.321C115.69 207.178 115.365 206.965 115.092 206.693C114.818 206.422 114.601 206.099 114.454 205.742C114.308 205.386 114.233 205.004 114.236 204.618C114.276 203.833 114.619 203.094 115.193 202.559C115.768 202.024 116.528 201.734 117.312 201.752C117.697 201.747 118.079 201.818 118.436 201.961C118.793 202.105 119.118 202.318 119.393 202.589C119.667 202.86 119.884 203.182 120.033 203.538C120.182 203.894 120.258 204.276 120.258 204.661Z" fill="#263238"/>
<path d="M123.712 200.509C123.313 200.876 121.133 199.059 117.895 198.865C114.658 198.67 112.198 200.162 111.863 199.741C111.701 199.557 112.133 198.865 113.212 198.173C114.672 197.29 116.367 196.878 118.068 196.994C119.749 197.087 121.355 197.716 122.654 198.789C123.604 199.611 123.906 200.346 123.712 200.509Z" fill="#263238"/>
<path d="M88.8018 203.634C88.7654 204.42 88.4229 205.16 87.8479 205.696C87.2729 206.232 86.5112 206.52 85.7263 206.5C85.3421 206.508 84.9601 206.44 84.6029 206.298C84.2457 206.156 83.9206 205.943 83.6469 205.673C83.3731 205.403 83.1563 205.08 83.0093 204.724C82.8623 204.368 82.7881 203.986 82.7911 203.601C82.8275 202.815 83.17 202.075 83.745 201.539C84.32 201.003 85.0817 200.715 85.8666 200.735C86.2508 200.727 86.6328 200.795 86.99 200.937C87.3472 201.079 87.6724 201.292 87.9461 201.562C88.2198 201.833 88.4366 202.155 88.5836 202.511C88.7306 202.867 88.8048 203.249 88.8018 203.634Z" fill="#263238"/>
<path d="M91.8657 199.2C91.4664 199.568 89.2866 197.74 86.06 197.556C82.8334 197.372 80.3514 198.854 80.0277 198.432C79.8658 198.248 80.2867 197.556 81.3658 196.864C82.8236 195.976 84.5204 195.564 86.2219 195.685C87.9062 195.776 89.5172 196.405 90.819 197.48C91.7254 198.302 92.0599 199.027 91.8657 199.2Z" fill="#263238"/>
<path d="M102.172 223.955C102.172 223.771 104.201 223.544 107.481 223.317C108.312 223.317 109.1 223.165 109.273 222.614C109.401 221.763 109.262 220.894 108.873 220.126L106.801 213.637C103.952 204.456 101.934 196.929 102.312 196.821C102.69 196.712 105.291 204.056 108.15 213.237C108.83 215.498 109.488 217.661 110.103 219.726C110.558 220.747 110.642 221.895 110.341 222.971C110.199 223.254 109.997 223.502 109.749 223.698C109.501 223.894 109.213 224.034 108.906 224.106C108.441 224.202 107.966 224.238 107.492 224.214C104.201 224.247 102.172 224.139 102.172 223.955Z" fill="#263238"/>
<path d="M102.097 262.455C91.0535 261.958 80.3651 258.398 71.2227 252.17C71.2227 252.17 77.8809 268.771 101.438 267.992L102.097 262.455Z" fill="#EB996E"/>
<path d="M99.4518 229.524C98.5784 229.055 97.6003 228.815 96.6093 228.829C95.6183 228.842 94.647 229.107 93.7864 229.6C93.1585 229.941 92.6044 230.403 92.1561 230.96C91.7078 231.517 91.3743 232.157 91.1749 232.844C90.989 233.514 91.0124 234.224 91.242 234.88C91.4717 235.535 91.8965 236.105 92.459 236.511C93.166 236.837 93.9537 236.945 94.7222 236.822C95.4908 236.699 96.2054 236.349 96.7756 235.818C97.968 234.714 98.9291 233.384 99.6029 231.903C99.8439 231.526 100.005 231.102 100.078 230.66C100.112 230.453 100.085 230.24 100.001 230.048C99.9164 229.856 99.7782 229.693 99.6029 229.578" fill="#EB996E"/>
<path d="M90.7226 190.018C90.5931 190.948 87.3449 191.229 83.7298 192.494C80.1147 193.76 77.3198 195.425 76.6615 194.755C76.3594 194.43 76.6615 193.511 77.7407 192.408C79.1203 191.011 80.8157 189.969 82.6831 189.369C84.5315 188.723 86.5066 188.527 88.4456 188.796C89.9348 189.055 90.7657 189.585 90.7226 190.018Z" fill="#263238"/>
<path d="M125.027 195.588C124.143 196.074 121.79 194.506 118.682 193.479C115.574 192.451 112.79 192.094 112.412 191.164C112.261 190.732 112.898 190.159 114.269 189.867C116.122 189.578 118.017 189.751 119.788 190.37C121.558 190.988 123.15 192.034 124.423 193.414C125.297 194.495 125.427 195.339 125.027 195.588Z" fill="#263238"/>
<path d="M76.4235 154.308C80.4918 160.159 82.3695 164.625 84.5925 174.856C85.6717 179.874 81.517 183.259 77.4055 186.168C76.963 186.482 76.4488 186.679 75.9104 186.742C75.3719 186.805 74.8263 186.731 74.3236 186.528C73.8209 186.324 73.3773 185.998 73.0333 185.578C72.6894 185.158 72.4562 184.658 72.3552 184.124C72.3552 184.124 73.2401 199.751 67.3912 206.565C64.6502 209.755 64.402 213.951 64.9092 217.509C65.4909 221.148 67.1314 224.534 69.625 227.243C75.9271 234.326 77.3732 245.628 72.6034 253.869C71.2285 255.893 69.9641 257.991 68.8157 260.152C68.2284 261.442 67.9266 262.844 67.9308 264.262C67.9714 265.088 67.6958 265.898 67.1603 266.527C66.6248 267.156 65.8698 267.557 65.0495 267.647C45.6437 269.828 26.0529 269.781 6.65784 267.506C5.99353 267.426 5.37019 267.142 4.87355 266.693C4.37692 266.244 4.03138 265.651 3.88448 264.997C2.56794 258.508 5.39526 251.5 8.78372 245.66C12.6362 239.171 17.4707 232.92 18.9707 225.491C20.3736 218.504 18.7009 210.858 21.7333 204.402C25.4563 196.485 34.985 192.992 39.9274 185.779C44.5892 178.965 44.5353 169.838 48.7439 162.743C54.1395 153.626 66.8732 149.766 76.4235 154.308Z" fill="#263238"/>
<path d="M77.2342 162.97C84.4859 167.015 87.6046 176.175 94.6405 180.598C101.051 184.622 109.23 183.843 116.741 182.999C116.514 181.323 116.288 179.658 116.072 177.981C116.689 179.509 117.582 180.909 118.705 182.112C119.277 182.705 119.999 183.131 120.793 183.346C121.587 183.561 122.424 183.557 123.216 183.335C125.752 182.404 126.205 178.955 125.644 176.305C124.635 172.057 122.507 168.158 119.482 165.014C114.083 159.154 106.76 155.438 98.8507 154.546C90.9419 153.654 82.9771 155.647 76.4141 160.158" fill="#263238"/>
<path d="M50.212 180.004C51.6572 176.448 52.1193 172.567 51.5496 168.771C50.9799 164.974 49.3994 161.401 46.9747 158.428C44.6525 155.759 41.6006 153.83 38.1962 152.881C34.7918 151.931 31.1844 152.002 27.8201 153.086C24.7104 154.048 21.998 156 20.0936 158.645C16.5756 163.728 16.9857 171.384 20.277 176.597C21.9038 179.057 24.0674 181.115 26.6044 182.614C29.1413 184.113 31.9852 185.014 34.9208 185.249C40.597 185.79 46.3056 184.167 51.6473 181.918" fill="#263238"/>
<path d="M39.9277 181.182C40.0141 181.085 41.309 182.264 43.7155 183.713C45.13 184.559 46.6138 185.282 48.1507 185.876C50.035 186.545 51.9792 187.03 53.9564 187.325C55.9402 187.6 57.9455 187.687 59.9456 187.585C61.582 187.477 63.2065 187.231 64.8017 186.849C67.5319 186.179 69.1182 185.411 69.1182 185.53C68.7828 185.767 68.4205 185.963 68.039 186.114C67.6099 186.328 67.1664 186.513 66.7117 186.665C66.1118 186.901 65.4994 187.103 64.8772 187.271C63.2682 187.718 61.6205 188.011 59.9564 188.147C57.9113 188.292 55.8567 188.219 53.8269 187.931C51.8033 187.61 49.818 187.081 47.9025 186.352C46.3462 185.743 44.8534 184.982 43.4457 184.081C42.9016 183.749 42.3757 183.388 41.8702 182.999C41.4915 182.716 41.131 182.409 40.791 182.08C40.465 181.82 40.1747 181.518 39.9277 181.182Z" fill="#455A64"/>
<path d="M69.8085 195.696C69.3986 195.873 68.9666 195.993 68.5243 196.053C67.6826 196.237 66.4524 196.475 64.9308 196.691C60.9285 197.34 56.8403 197.234 52.877 196.377C48.8855 195.458 45.3039 193.255 42.6792 190.105C41.9092 189.143 41.2805 188.076 40.8123 186.936C40.6167 186.53 40.4856 186.096 40.4238 185.649C41.1186 187.139 41.9881 188.54 43.0137 189.823C45.6622 192.804 49.1691 194.886 53.0496 195.782C56.9505 196.618 60.9651 196.779 64.9201 196.258C66.4416 196.107 67.6718 195.934 68.5243 195.826C68.9463 195.735 69.377 195.691 69.8085 195.696Z" fill="#455A64"/>
<path d="M25.683 266.327C25.6266 266.275 25.576 266.217 25.5319 266.154C25.3967 265.984 25.2706 265.808 25.1542 265.624C24.721 264.888 24.4283 264.078 24.2909 263.234C24.112 261.67 24.2761 260.085 24.7719 258.59C25.2677 257.096 26.0832 255.728 27.1614 254.582C28.6371 253.012 30.3351 251.667 32.2009 250.592C34.1649 249.38 36.3664 248.277 38.5354 246.915C40.8358 245.567 42.8254 243.746 44.3735 241.572C45.1405 240.407 45.662 239.097 45.9059 237.722C46.1319 236.286 46.099 234.821 45.8087 233.396C45.1374 230.589 44.2314 227.843 43.1001 225.188C42.0437 222.655 41.4586 219.95 41.3735 217.207C41.3913 212.53 42.959 207.991 45.8303 204.305C47.7028 201.804 50.1399 199.784 52.9418 198.41L54.2799 197.826L55.359 197.502C55.6333 197.404 55.9147 197.329 56.2008 197.275C55.944 197.419 55.6727 197.535 55.3914 197.621L54.4094 197.989L53.1037 198.627C50.3903 200.054 48.0389 202.085 46.2296 204.564C43.4783 208.197 41.9922 212.635 41.9994 217.196C42.092 219.876 42.6774 222.515 43.726 224.982C44.8482 227.686 45.7434 230.479 46.4023 233.331C46.7002 234.814 46.7294 236.338 46.4886 237.83C46.2371 239.286 45.6819 240.671 44.8591 241.897C43.2661 244.137 41.2175 246.013 38.8484 247.401C36.6361 248.764 34.4347 249.846 32.4707 251.024C30.6362 252.066 28.9577 253.362 27.4851 254.874C26.4305 255.972 25.6221 257.283 25.114 258.719C24.606 260.155 24.4099 261.684 24.5391 263.202C24.7072 264.31 25.0962 265.373 25.683 266.327Z" fill="#455A64"/>
<path d="M56.934 267.776C56.7015 267.656 56.4779 267.518 56.2649 267.365C55.6664 266.908 55.1702 266.329 54.8081 265.668C54.234 264.613 53.9091 263.44 53.8585 262.239C53.7925 260.658 54.0156 259.079 54.5168 257.578C55.5959 254.161 58.5635 251.089 60.862 247.239C62.0988 245.238 62.7804 242.942 62.8368 240.588C62.811 238.058 62.2482 235.562 61.1858 233.266C59.1138 228.465 55.7901 224.615 53.5671 220.581C52.4539 218.699 51.5871 216.682 50.988 214.579C50.4758 212.728 50.3436 210.793 50.5995 208.89C50.874 206.102 52.1788 203.517 54.2578 201.644C54.8417 201.174 55.4882 200.788 56.1786 200.498C56.4147 200.394 56.6605 200.314 56.9124 200.26C56.0207 200.685 55.1806 201.211 54.4088 201.828C52.4619 203.713 51.262 206.241 51.0312 208.944C50.8109 210.79 50.9613 212.662 51.4736 214.449C52.0854 216.5 52.9519 218.465 54.0527 220.3C55.1966 222.268 56.5563 224.236 57.9376 226.302C59.4122 228.421 60.6875 230.673 61.7469 233.029C62.841 235.403 63.4185 237.984 63.4412 240.599C63.3723 243.052 62.6495 245.442 61.3476 247.52C58.9628 251.468 55.952 254.453 54.8729 257.719C54.3639 259.166 54.119 260.694 54.1499 262.228C54.1673 263.382 54.444 264.517 54.9592 265.549C55.4502 266.425 56.1238 267.185 56.934 267.776Z" fill="#455A64"/>
<path d="M106.11 180.977C106.11 180.977 105.949 180.977 105.679 180.782C105.278 180.553 104.896 180.292 104.535 180.004C103.234 178.913 102.137 177.598 101.298 176.121C100.083 173.928 99.0686 171.629 98.2652 169.254C97.7688 167.945 97.1861 166.572 96.571 165.22C95.8709 163.823 95.0436 162.495 94.0998 161.251C90.7324 156.875 86.0897 153.659 80.8157 152.047C78.6187 151.449 76.3721 151.051 74.1035 150.858C74.7175 150.805 75.3349 150.805 75.9488 150.858C77.6377 150.962 79.3118 151.237 80.9452 151.68C86.3683 153.206 91.1532 156.45 94.5854 160.926C95.5586 162.182 96.4079 163.529 97.1213 164.949C97.7904 166.345 98.3192 167.74 98.8048 169.059C99.5732 171.416 100.533 173.705 101.675 175.905C102.463 177.36 103.475 178.682 104.675 179.82C105.571 180.642 106.143 180.934 106.11 180.977Z" fill="#455A64"/>
<path d="M122.482 181.42C122.27 181.418 122.06 181.389 121.856 181.334C121.258 181.216 120.673 181.042 120.108 180.815C118.024 179.959 116.156 178.652 114.637 176.986C112.388 174.535 110.519 171.761 109.09 168.756C107.352 165.512 105.691 161.694 103.036 158.363C100.522 155.26 97.1397 152.982 93.3237 151.82C90.188 150.88 86.9468 150.339 83.6763 150.209C80.8706 150.047 78.6044 150.101 77.0289 150.101H75.1728C74.9651 150.129 74.7546 150.129 74.5469 150.101C74.7505 150.043 74.9611 150.013 75.1728 150.014C75.5828 150.014 76.2519 149.928 76.9749 149.884C78.5504 149.809 80.8274 149.69 83.6439 149.798C86.9621 149.861 90.2572 150.367 93.4424 151.301C97.4001 152.459 100.912 154.798 103.511 158.006C106.23 161.424 107.827 165.23 109.586 168.529C110.987 171.501 112.804 174.258 114.982 176.716C116.442 178.372 118.232 179.702 120.237 180.62C121.629 181.215 122.503 181.355 122.482 181.42Z" fill="#455A64"/>
<path d="M147.721 258.659C147.656 258.659 148.056 257.837 148.487 256.312C150.072 250.933 149.622 245.158 147.225 240.09C146.359 238.335 145.271 236.7 143.987 235.224C142.682 233.666 141.171 232.185 139.671 230.627C138.147 229.133 136.744 227.52 135.473 225.804C134.318 224.191 133.327 222.467 132.516 220.656C131.782 219.009 131.204 217.296 130.79 215.541C129.881 211.802 129.73 207.918 130.347 204.12C130.438 203.511 130.564 202.908 130.725 202.314C130.764 202.101 130.829 201.894 130.919 201.698C130.973 201.698 130.768 202.574 130.585 204.153C130.301 206.377 130.269 208.626 130.488 210.858C130.628 212.399 130.895 213.925 131.286 215.422C131.713 217.138 132.298 218.811 133.034 220.418C133.834 222.203 134.818 223.899 135.97 225.479C137.23 227.164 138.615 228.751 140.113 230.227C141.635 231.774 143.157 233.277 144.43 234.867C145.725 236.389 146.813 238.076 147.667 239.885C149.12 242.956 149.858 246.317 149.826 249.715C149.812 251.994 149.429 254.254 148.692 256.41C148.501 256.994 148.271 257.565 148.002 258.118C147.936 258.312 147.841 258.494 147.721 258.659Z" fill="#455A64"/>
<path d="M19.6504 174.812C19.6581 174.307 19.7344 173.805 19.877 173.32C20.5521 170.557 21.9404 168.02 23.9027 165.964C25.8649 163.908 28.3322 162.406 31.0568 161.607C33.0909 161.175 35.1963 161.21 37.2149 161.71C39.2335 162.21 41.1127 163.162 42.7114 164.495C43.7125 165.314 44.5919 166.271 45.3229 167.339C45.6273 167.725 45.8711 168.156 46.0459 168.615C44.9469 167.278 43.7179 166.053 42.3768 164.96C40.8003 163.749 38.9818 162.892 37.0452 162.448C35.1086 162.003 33.0993 161.982 31.1539 162.386C29.1766 162.944 27.3292 163.889 25.7179 165.166C24.1066 166.443 22.7633 168.027 21.7655 169.827C20.9132 171.422 20.2054 173.09 19.6504 174.812Z" fill="#455A64"/>
<path d="M32.6543 181.723C32.6771 180.55 32.8438 179.384 33.1507 178.251C33.6315 175.468 34.8292 172.858 36.6255 170.681C37.5178 169.678 38.6909 168.967 39.992 168.641C41.293 168.315 42.6619 168.389 43.9204 168.853C44.6826 169.181 45.3345 169.722 45.7981 170.411C46.1326 170.908 46.2189 171.243 46.1866 171.265C45.5426 170.447 44.7041 169.803 43.7477 169.394C42.579 169.047 41.3361 169.037 40.162 169.366C38.9879 169.695 37.9304 170.349 37.1111 171.254C35.4203 173.342 34.2314 175.792 33.6363 178.414C33.4048 179.543 33.0762 180.65 32.6543 181.723Z" fill="#455A64"/>
<path d="M50.7191 159.802C50.8917 159.953 48.5069 163.241 46.8666 168.032C45.2263 172.823 44.9457 177.04 44.7083 177.019C44.4709 176.997 44.4493 172.693 46.1975 167.75C47.9457 162.808 50.6004 159.65 50.7191 159.802Z" fill="#5B2F91"/>
<path d="M0 236.229C0.63344 236.988 1.44056 237.582 2.3525 237.96C3.4358 238.386 4.60512 238.545 5.76255 238.425C7.29428 238.275 8.74383 237.66 9.91719 236.662C12.5826 234.499 14.0287 230.249 13.9208 225.739C13.9208 223.457 13.6078 221.089 13.3812 218.601C13.0766 216.037 13.1165 213.444 13.4999 210.89C13.7276 209.591 14.1381 208.332 14.7193 207.148C15.3026 206.006 16.0517 204.956 16.9423 204.034C18.6636 202.349 20.6508 200.96 22.8236 199.924C24.8631 198.843 26.8703 198.064 28.7264 197.242C30.4414 196.486 32.0909 195.589 33.658 194.56C35.9774 193.137 37.8653 191.107 39.1184 188.688C39.5098 187.771 39.7993 186.813 39.9817 185.833C39.9817 185.833 39.9817 186.103 39.8846 186.611C39.7568 187.356 39.5394 188.082 39.2371 188.774C38.0079 191.243 36.122 193.324 33.7875 194.787C32.2208 195.845 30.5632 196.76 28.8343 197.523C26.989 198.367 24.9926 199.21 22.9639 200.238C20.8291 201.266 18.8755 202.636 17.1797 204.293C16.3151 205.194 15.5878 206.218 15.0215 207.332C14.4528 208.487 14.053 209.718 13.8344 210.988C12.928 216.179 14.2553 221.186 14.2337 225.761C14.2121 230.335 12.8308 234.629 10.0791 236.878C8.85272 237.892 7.34685 238.507 5.76255 238.641C4.57841 238.754 3.38477 238.572 2.28775 238.111C1.60821 237.824 0.992064 237.405 0.474817 236.878C0.299576 236.675 0.1408 236.458 0 236.229H0Z" fill="#263238"/>
<path d="M136.866 159.953C136.967 160.166 137.04 160.391 137.082 160.623C137.214 161.287 137.169 161.973 136.953 162.613C136.586 163.619 135.942 164.5 135.097 165.155C133.958 166.016 132.531 166.403 131.115 166.236C129.413 166.02 127.81 165.318 126.496 164.214C125.004 162.95 123.744 161.435 122.773 159.736C121.694 158.006 120.733 156.081 119.449 154.329C118.138 152.463 116.597 150.77 114.863 149.289C111.822 146.668 108.236 144.76 104.366 143.703C100.496 142.646 96.4401 142.467 92.4926 143.179C90.1013 143.604 87.7734 144.331 85.5646 145.342C84.7984 145.721 84.1941 146.013 83.8056 146.24C83.4171 146.467 83.1797 146.553 83.1797 146.553C83.9273 146.06 84.7059 145.616 85.5106 145.223C87.7105 144.155 90.0447 143.391 92.4494 142.952C96.0208 142.284 99.6893 142.335 103.241 143.103C107.619 144.089 111.693 146.126 115.111 149.041C116.868 150.534 118.427 152.245 119.751 154.134C121.046 155.962 122.007 157.887 123.075 159.618C124.02 161.29 125.247 162.787 126.701 164.041C127.971 165.125 129.526 165.819 131.179 166.041C132.548 166.197 133.924 165.809 135.01 164.96C135.846 164.344 136.487 163.499 136.856 162.527C137.086 161.909 137.153 161.242 137.05 160.591C136.942 160.191 136.845 159.964 136.866 159.953Z" fill="#263238"/>
<path d="M68.504 259.46L68.7198 259.352L69.3349 259.071C70.1326 258.712 70.9106 258.311 71.6658 257.87C74.4849 256.315 76.8562 254.058 78.5507 251.316C79.6681 249.404 80.3224 247.256 80.4607 245.044C80.5171 243.82 80.386 242.594 80.0723 241.41C79.6848 240.168 79.1293 238.986 78.4212 237.895C76.7438 235.637 74.7937 233.595 72.6155 231.817C71.5364 230.844 70.3925 229.871 69.3133 228.789C68.1826 227.729 67.1859 226.534 66.3457 225.231C65.9224 224.567 65.5612 223.864 65.2666 223.133C65.0089 222.402 64.8352 221.643 64.7486 220.873C64.5544 219.359 64.7208 217.821 65.2342 216.385C66.3311 213.763 67.7562 211.292 69.4752 209.031C70.9572 206.957 72.1347 204.68 72.9716 202.271C74.6977 197.077 74.6787 191.459 72.9176 186.276C72.642 185.445 72.314 184.632 71.9356 183.843C71.6874 183.302 71.5687 183.01 71.5687 183.01C71.5687 183.01 71.7306 183.281 72.0004 183.821C72.4145 184.6 72.7751 185.405 73.0795 186.233C74.1705 189.292 74.6402 192.539 74.4608 195.783C74.345 198.021 73.9387 200.235 73.2522 202.369C72.4161 204.8 71.2349 207.099 69.745 209.193C68.0483 211.436 66.6415 213.885 65.558 216.482C65.0705 217.868 64.9117 219.349 65.094 220.808C65.18 221.545 65.3464 222.27 65.5903 222.971C65.8889 223.679 66.25 224.36 66.6695 225.004C67.4976 226.288 68.4797 227.464 69.5939 228.508C70.673 229.589 71.7522 230.552 72.8313 231.525C75.0211 233.33 76.9818 235.396 78.6694 237.679C79.3937 238.798 79.9568 240.014 80.342 241.291C80.6684 242.506 80.796 243.766 80.7197 245.022C80.5951 247.285 79.9288 249.485 78.7773 251.435C77.0444 254.195 74.6229 256.454 71.7522 257.989C70.7153 258.575 69.6282 259.067 68.504 259.46Z" fill="#263238"/>
<path d="M154.952 216.546L155.124 216.601C155.288 216.657 155.443 216.734 155.588 216.828C156.14 217.208 156.547 217.765 156.743 218.407C156.915 218.909 156.973 219.443 156.913 219.97C156.853 220.498 156.677 221.005 156.398 221.456C155.991 222.032 155.45 222.5 154.822 222.819C154.194 223.137 153.497 223.297 152.794 223.284C151.945 223.286 151.106 223.112 150.327 222.774C149.549 222.435 148.849 221.939 148.272 221.316C146.933 219.921 145.923 218.243 145.315 216.406C143.912 212.567 143.858 207.992 144.301 203.428C144.743 198.864 145.38 194.398 145.175 190.385C145.087 188.491 144.742 186.617 144.15 184.816C143.619 183.267 142.854 181.808 141.884 180.49C140.505 178.527 138.574 177.021 136.337 176.164C135.506 175.883 134.649 175.687 133.779 175.58C133.779 175.58 134.017 175.58 134.459 175.58C134.736 175.599 135.01 175.642 135.279 175.71C135.646 175.778 136.007 175.876 136.358 176.002C138.653 176.828 140.642 178.337 142.056 180.328C143.06 181.669 143.849 183.157 144.398 184.74C145.013 186.56 145.376 188.456 145.477 190.375C145.758 194.43 145.089 198.853 144.646 203.461C144.204 208.068 144.247 212.577 145.607 216.352C146.199 218.148 147.175 219.794 148.466 221.175C149.015 221.776 149.682 222.256 150.425 222.588C151.167 222.919 151.97 223.093 152.783 223.1C153.452 223.12 154.115 222.977 154.717 222.683C155.318 222.389 155.84 221.953 156.236 221.413C156.51 220.986 156.686 220.504 156.751 220.001C156.816 219.498 156.769 218.987 156.614 218.504C156.436 217.876 156.057 217.325 155.535 216.936C155.351 216.791 155.156 216.661 154.952 216.546Z" fill="#263238"/>
<path d="M53.0501 278.883C53.0501 278.883 61.8774 296.803 80.5356 295.971C99.1937 295.138 101.125 278.743 101.125 278.743L111.571 290.271L101.125 316.032L85.7801 322.683L60.7659 316.032L54.0753 305.423L37.5215 285.761L53.0501 278.883Z" fill="#5B2F91"/>
<path d="M115.164 298.155L114.236 298.22C113.354 298.293 112.482 298.46 111.635 298.717C110.306 299.176 109.032 299.782 107.837 300.523C106.434 301.378 104.923 302.492 103.25 303.768C101.458 305.164 99.5442 306.394 97.5309 307.445C96.3898 308 95.2017 308.452 93.9806 308.797C92.6814 309.141 91.3572 309.384 90.0202 309.521C84.5058 310.083 78.4303 308.872 72.4627 306.796C66.4952 304.719 60.9053 302.351 55.5744 301.086C53.055 300.492 50.4651 300.256 47.8802 300.383C45.6251 300.461 43.3785 300.699 41.1572 301.096C37.9363 301.631 34.7985 302.584 31.8227 303.93C31.294 304.168 30.8515 304.427 30.463 304.644C30.1244 304.812 29.7997 305.008 29.4918 305.228L28.7148 305.725C29.6543 304.969 30.6793 304.327 31.7688 303.811C34.734 302.393 37.8779 301.385 41.114 300.815C43.3443 300.397 45.6021 300.144 47.8694 300.058C50.4784 299.919 53.094 300.148 55.6391 300.74C61.0348 301.994 66.5923 304.373 72.5706 306.428C78.549 308.483 84.5382 309.673 89.9878 309.164C91.3025 309.036 92.605 308.805 93.8834 308.472C95.0963 308.147 96.2774 307.713 97.4122 307.174C99.4134 306.136 101.32 304.923 103.11 303.551C104.793 302.329 106.347 301.226 107.739 300.383C108.952 299.649 110.245 299.058 111.592 298.62C112.451 298.373 113.334 298.221 114.225 298.166L115.164 298.155Z" fill="#FAFAFA"/>
<path d="M117.388 236.219L124.489 250.548L125.137 258.346C125.137 258.346 125.784 255.988 126.583 253.782C127.381 251.576 127.878 244.687 127.878 244.687L122.708 233.926C122.708 233.926 119.655 227.989 123.345 225.22L128.816 232.477C128.816 232.477 124.5 224.139 128.579 221.868L133.198 227.08C133.031 226.814 132.924 226.514 132.885 226.202C132.846 225.89 132.875 225.573 132.971 225.273C133.066 224.974 133.226 224.699 133.438 224.467C133.651 224.236 133.911 224.054 134.201 223.933L145.888 238.955L144.442 261.104L140.428 284.118L142.338 287.557L121.586 301.973C121.586 301.973 115.111 287.751 114.658 283.047C114.205 278.342 118.834 253.404 118.834 253.404C118.834 253.404 114.421 244.546 114.993 241.01C115.565 237.473 117.388 236.219 117.388 236.219Z" fill="#FFBE9D"/>
<path d="M123.258 305.422C123.203 305.358 123.159 305.285 123.129 305.206L122.805 304.557L121.585 301.972C120.506 299.691 119.017 296.327 117.269 291.947C116.259 289.53 115.401 287.053 114.701 284.528C114.372 283.048 114.302 281.522 114.496 280.018C114.625 278.472 114.798 276.882 115.013 275.238C115.866 268.663 117.075 261.255 118.521 253.155V253.382C117.168 250.684 116.046 247.876 115.165 244.989C114.939 244.221 114.769 243.436 114.657 242.643C114.596 242.231 114.567 241.815 114.571 241.399V240.75L114.679 240.144C114.857 239.32 115.136 238.521 115.51 237.765C115.888 236.967 116.437 236.262 117.118 235.699L117.485 235.407L117.701 235.851C119.967 240.404 122.362 245.216 124.823 250.18V250.245V250.332C125.028 252.776 125.254 255.426 125.481 258.118L124.639 258.043L125.718 254.798L126.236 253.165C126.39 252.621 126.513 252.069 126.603 251.511C127.003 249.24 127.229 246.86 127.413 244.481V244.697C126.409 242.599 125.362 240.447 124.305 238.208L122.718 234.888C122.459 234.326 122.157 233.807 121.92 233.169C121.673 232.572 121.471 231.957 121.316 231.33C120.997 230.168 120.931 228.951 121.121 227.761C121.324 226.52 121.997 225.404 122.999 224.647L123.366 224.387L123.625 224.733L129.096 231.99L128.416 232.552C127.506 230.774 126.859 228.872 126.495 226.907C126.307 225.907 126.307 224.879 126.495 223.879C126.606 223.351 126.826 222.853 127.142 222.417C127.458 221.98 127.863 221.616 128.33 221.348L128.643 221.186L128.87 221.456L133.564 227.102L132.851 227.567C132.536 226.892 132.431 226.139 132.549 225.404C132.637 225.025 132.807 224.671 133.048 224.366C133.289 224.061 133.594 223.813 133.941 223.641L134.254 223.479L134.47 223.76L146.157 238.609L146.254 238.728V238.879C145.715 246.85 145.175 254.258 144.754 261.028C143.179 269.885 141.808 277.596 140.654 284.02V283.858L148.315 298.068L150.323 301.864L150.819 302.848C150.89 302.953 150.942 303.071 150.97 303.195C150.895 303.095 150.826 302.99 150.765 302.881L150.204 301.929L148.046 298.198L140.179 284.139V284.063V283.966C141.258 277.531 142.596 269.809 144.107 260.952C144.524 254.167 144.988 246.781 145.499 238.792L145.585 239.063L133.844 224.247L134.373 224.355C134.135 224.47 133.926 224.638 133.761 224.846C133.597 225.054 133.481 225.296 133.423 225.555C133.336 226.111 133.419 226.68 133.661 227.188L134.945 230.043L132.949 227.653C131.409 225.793 129.841 223.911 128.244 222.008L128.783 222.116C128.425 222.325 128.114 222.607 127.873 222.944C127.631 223.282 127.463 223.667 127.38 224.074C127.213 224.963 127.213 225.877 127.38 226.766C127.729 228.648 128.347 230.469 129.215 232.174L128.47 232.65C126.668 230.249 124.844 227.837 122.988 225.382L123.614 225.469C122.79 226.097 122.238 227.018 122.071 228.043C121.9 229.125 121.963 230.231 122.254 231.287C122.397 231.87 122.585 232.441 122.816 232.996C123.031 233.547 123.323 234.077 123.582 234.65L125.179 237.971C126.258 240.134 127.272 242.296 128.287 244.459V244.568V244.687C128.093 247.098 127.855 249.477 127.456 251.813C127.359 252.405 127.225 252.99 127.057 253.565C126.884 254.117 126.711 254.647 126.528 255.22L125.513 258.465L124.844 260.563L124.661 258.4C124.445 255.707 124.229 252.992 124.024 250.602V250.764C121.575 245.79 119.19 240.977 116.945 236.413L117.528 236.565C116.961 237.059 116.499 237.662 116.168 238.338C115.641 239.358 115.337 240.479 115.275 241.625C115.214 242.772 115.397 243.919 115.812 244.989C116.657 247.834 117.74 250.601 119.049 253.263V253.382V253.49C117.56 261.579 116.298 268.966 115.402 275.519C115.175 277.153 114.992 278.764 114.852 280.267C114.642 281.707 114.693 283.172 115.003 284.593C115.673 287.103 116.494 289.57 117.463 291.98C119.168 296.37 120.625 299.755 121.607 302.059L122.686 304.687L122.967 305.368C123.066 305.372 123.164 305.39 123.258 305.422Z" fill="#EB996E"/>
<path d="M134.33 256.204C134.188 254.932 134.188 253.648 134.33 252.376C134.459 250.029 134.697 246.785 135.01 243.205L135.096 242.221L135.171 242.502C133.305 239.712 131.664 237.192 130.52 235.354C129.832 234.407 129.263 233.379 128.826 232.293C129.648 233.111 130.373 234.022 130.984 235.007C132.258 236.759 133.974 239.225 135.862 242.005L135.948 242.134V242.286C135.948 242.599 135.948 242.935 135.862 243.27C135.549 246.85 135.215 250.083 134.923 252.419C134.883 253.701 134.683 254.972 134.33 256.204Z" fill="#EB996E"/>
<path d="M140.46 250.062C140.321 248.901 140.321 247.729 140.46 246.568C140.579 244.405 140.795 241.399 141.086 238.046L141.172 238.349L140.525 237.506C138.367 234.64 136.381 232.012 135.01 230.087C134.191 229.091 133.492 228.002 132.928 226.842C133.888 227.698 134.753 228.655 135.507 229.697C137.007 231.525 139.036 234.099 141.226 236.965L141.874 237.819L141.982 237.949V238.122C141.669 241.485 141.345 244.47 141.075 246.623C141.015 247.79 140.808 248.946 140.46 250.062Z" fill="#EB996E"/>
<path d="M115.984 297.16L144.916 284.917C144.916 284.917 187.002 379.449 189.419 385.56C195.225 399.954 189.484 421.313 173.685 420.924C166.239 420.74 144.916 417.842 139.153 395.153C137.33 388.036 132.15 370.971 132.15 370.971L115.984 297.16Z" fill="#5B2F91"/>
<path d="M144.917 284.917C144.756 285.022 144.586 285.112 144.41 285.188L142.888 285.934L137.05 288.681L116.255 298.414L116.395 298.155C118.111 307.834 120.248 319.319 122.87 331.54C126.626 349.298 130.726 365.196 133.877 376.659C135.485 382.348 136.78 386.966 137.697 390.21C138.14 391.778 138.496 393.011 138.777 393.887L139.036 394.85C139.071 394.959 139.096 395.071 139.111 395.185C139.057 395.085 139.014 394.98 138.982 394.871C138.906 394.623 138.798 394.309 138.669 393.92L137.525 390.275C136.543 387.095 135.162 382.488 133.521 376.767C130.284 365.325 126.118 349.428 122.352 331.659C119.741 319.427 117.636 307.931 115.975 298.241V298.057L116.147 297.982L137.018 288.454L142.866 285.826L144.42 285.155C144.579 285.063 144.745 284.983 144.917 284.917Z" fill="#263238"/>
<path d="M184.736 379.504C184.668 379.661 184.581 379.81 184.477 379.947C184.262 380.272 184.003 380.683 183.679 381.159C183.269 381.81 182.818 382.435 182.33 383.03C181.769 383.732 181.175 384.565 180.388 385.387L179.201 386.707C178.78 387.161 178.294 387.583 177.83 388.058C176.891 389.01 175.78 389.897 174.593 390.859C169.495 394.939 163.62 397.931 157.327 399.652C155.881 400.009 154.499 400.387 153.183 400.582C152.535 400.69 151.899 400.831 151.283 400.896L149.524 401.09C148.445 401.242 147.366 401.231 146.481 401.274C145.716 401.324 144.948 401.324 144.183 401.274L142.726 401.209C142.556 401.207 142.386 401.189 142.219 401.155H142.726H144.183C144.946 401.183 145.71 401.165 146.471 401.101C147.366 401.047 148.381 401.036 149.503 400.874L151.251 400.658C151.855 400.582 152.481 400.441 153.14 400.322C154.445 400.117 155.805 399.738 157.24 399.371C163.469 397.625 169.29 394.659 174.366 390.643C175.51 389.691 176.621 388.815 177.603 387.875C178.078 387.409 178.564 386.988 178.985 386.544L180.183 385.247C180.97 384.446 181.575 383.624 182.147 382.932C182.643 382.348 183.108 381.738 183.539 381.104L184.391 379.926C184.493 379.775 184.609 379.634 184.736 379.504Z" fill="#FAFAFA"/>
<path d="M176.793 353.883C176.735 354.043 176.659 354.195 176.566 354.338C176.394 354.619 176.189 355.062 175.833 355.581C174.866 357.069 173.737 358.444 172.466 359.68C170.581 361.529 168.418 363.069 166.056 364.244C163.173 365.706 160.03 366.581 156.808 366.818C153.596 366.912 150.383 366.768 147.193 366.385C144.6 366.111 141.981 366.199 139.412 366.645C137.683 366.96 136.028 367.599 134.534 368.527C133.455 369.208 133.002 369.716 132.98 369.684C133.423 369.206 133.919 368.781 134.459 368.418C135.944 367.434 137.609 366.754 139.358 366.418C141.946 365.923 144.593 365.807 147.214 366.072C150.387 366.439 153.583 366.577 156.775 366.483C159.96 366.246 163.068 365.39 165.926 363.963C169.857 362.024 173.229 359.113 175.725 355.506C176.092 355.008 176.318 354.575 176.513 354.305C176.595 354.157 176.688 354.016 176.793 353.883Z" fill="#FAFAFA"/>
<path d="M125.719 342.636C125.719 342.636 126.301 342.636 127.337 342.636C128.803 342.603 130.256 342.363 131.654 341.922C133.721 341.257 135.686 340.307 137.492 339.1C139.688 337.589 141.779 335.931 143.751 334.136C145.736 332.348 147.822 330.676 149.999 329.129C151.795 327.861 153.756 326.846 155.826 326.111C157.217 325.62 158.671 325.333 160.143 325.257C160.687 325.223 161.233 325.244 161.772 325.322C161.772 325.322 161.19 325.322 160.154 325.387C158.698 325.511 157.265 325.828 155.891 326.328C153.856 327.095 151.927 328.12 150.15 329.377C147.994 330.945 145.926 332.631 143.956 334.428C141.971 336.232 139.861 337.895 137.643 339.403C135.808 340.612 133.809 341.552 131.708 342.193C130.293 342.636 128.82 342.862 127.337 342.863C126.792 342.839 126.25 342.763 125.719 342.636Z" fill="#FAFAFA"/>
<path d="M147.247 298.912C147.23 299.017 147.197 299.119 147.15 299.215C147.043 299.499 146.921 299.777 146.783 300.048C146.223 301.035 145.492 301.913 144.625 302.643C143.349 303.723 141.885 304.559 140.308 305.109C138.388 305.764 136.394 306.178 134.373 306.342C132.215 306.558 130.197 306.656 128.362 306.85C126.731 307.008 125.117 307.309 123.538 307.748C122.478 308.05 121.451 308.459 120.474 308.97C119.794 309.348 119.395 309.597 119.395 309.565C119.395 309.532 119.47 309.489 119.632 309.359C119.794 309.229 120.053 309.067 120.398 308.862C121.359 308.293 122.384 307.843 123.452 307.521C125.036 307.043 126.662 306.718 128.308 306.547C130.153 306.331 132.193 306.223 134.319 306.007C136.316 305.847 138.287 305.448 140.189 304.817C141.73 304.286 143.165 303.488 144.43 302.459C145.614 301.495 146.575 300.284 147.247 298.912Z" fill="#FAFAFA"/>
<path d="M404.533 393.963C407.025 396.937 411.245 395.499 413.069 393.39C414.892 391.281 415.486 388.394 416.015 385.647C417.223 379.374 418.421 372.799 416.565 366.677C416.081 364.82 415.095 363.132 413.716 361.8C413.021 361.142 412.166 360.678 411.236 360.456C410.306 360.234 409.334 360.261 408.418 360.535C406.259 361.313 405.18 363.563 404.338 365.683C402.004 371.931 401.083 378.62 401.641 385.268C401.91 388.361 402.558 391.573 404.533 393.92" fill="#5B2F91"/>
<g opacity="0.2">
<path d="M404.533 393.963C407.025 396.937 411.245 395.499 413.069 393.39C414.892 391.281 415.486 388.394 416.015 385.647C417.223 379.374 418.421 372.799 416.565 366.677C416.081 364.82 415.095 363.132 413.716 361.8C413.021 361.142 412.166 360.678 411.236 360.456C410.306 360.234 409.334 360.261 408.418 360.535C406.259 361.313 405.18 363.563 404.338 365.683C402.004 371.931 401.083 378.62 401.641 385.268C401.91 388.361 402.558 391.573 404.533 393.92" fill="black"/>
</g>
<path d="M414.268 409.288C417.831 407.209 421.963 406.326 426.062 406.768C428.285 406.788 430.437 407.549 432.181 408.931C433.8 410.434 434.339 413.257 432.764 414.814C431.744 415.656 430.459 416.108 429.138 416.09C425.987 416.339 422.437 416.09 420.095 418.253C418.746 419.464 417.937 421.357 416.285 422.038C415.445 422.313 414.537 422.307 413.7 422.02C412.863 421.733 412.142 421.182 411.645 420.448C410.685 418.941 410.338 417.122 410.674 415.366C410.76 414.142 411.13 412.956 411.753 411.901C412.377 410.845 413.238 409.951 414.268 409.288Z" fill="#5B2F91"/>
<path d="M398.847 399.1C399.854 397.502 400.458 395.682 400.605 393.797C400.751 391.913 400.437 390.021 399.688 388.286C398.156 384.831 395.703 381.867 392.598 379.72C389.045 377.084 385.013 375.166 380.728 374.075C379.065 373.571 377.312 373.435 375.591 373.675C374.735 373.808 373.923 374.145 373.224 374.659C372.525 375.173 371.96 375.848 371.577 376.627C370.595 378.996 371.976 381.634 373.401 383.765C375.918 387.516 378.725 391.064 381.796 394.374C384.268 397.035 387.052 399.63 390.537 400.614C394.023 401.599 397.519 401.144 399.095 398.635" fill="#5B2F91"/>
<path d="M408.645 441.851C408.722 441.368 408.747 440.879 408.721 440.391C408.721 439.31 408.721 438.001 408.721 436.422C408.741 434.463 408.863 432.506 409.088 430.56C409.399 428.193 409.894 425.854 410.566 423.563C411.232 421.273 412.217 419.089 413.491 417.074C414.527 415.435 415.917 414.049 417.559 413.019C418.672 412.339 419.885 411.839 421.153 411.537C421.635 411.478 422.109 411.365 422.566 411.202C422.075 411.185 421.582 411.221 421.099 411.31C419.775 411.529 418.503 411.987 417.343 412.662C415.604 413.671 414.126 415.075 413.027 416.761C411.693 418.799 410.671 421.027 409.994 423.369C409.303 425.694 408.812 428.075 408.527 430.485C408.329 432.446 408.249 434.418 408.289 436.39C408.289 438.077 408.386 439.429 408.44 440.369C408.454 440.869 408.523 441.366 408.645 441.851Z" fill="#263238"/>
<path d="M408.644 438.791C408.67 438.568 408.67 438.343 408.644 438.12C408.644 437.623 408.547 436.985 408.471 436.206C408.32 434.551 408.104 432.15 407.932 429.165C407.543 423.228 407.327 414.987 407.511 405.892C407.694 396.797 408.288 388.588 408.968 382.662C409.119 381.18 409.291 379.839 409.453 378.671C409.615 377.503 409.745 376.508 409.885 375.665C410.025 374.821 410.09 374.259 410.166 373.761C410.21 373.541 410.228 373.316 410.22 373.091C410.131 373.298 410.073 373.516 410.047 373.74C409.939 374.237 409.809 374.821 409.648 375.621C409.486 376.422 409.313 377.449 409.13 378.617C408.946 379.785 408.73 381.126 408.547 382.608C407.589 390.331 407.042 398.1 406.907 405.881C406.734 414.987 407.014 423.25 407.511 429.198C407.738 432.183 408.018 434.605 408.245 436.238C408.353 437.006 408.45 437.633 408.525 438.142C408.538 438.362 408.578 438.58 408.644 438.791Z" fill="#263238"/>
<path d="M407.274 422.947C407.262 422.276 407.197 421.607 407.08 420.946C406.897 419.67 406.551 417.832 406.001 415.539C404.482 409.708 402.272 404.08 399.418 398.776C396.636 393.406 392.902 388.587 388.401 384.554C387.624 383.862 386.802 383.223 385.94 382.64C385.562 382.37 385.228 382.11 384.861 381.894L383.922 381.364C383.358 381.01 382.766 380.703 382.152 380.445C384.219 381.797 386.201 383.274 388.088 384.868C392.465 388.947 396.114 393.746 398.879 399.057C400.454 401.946 401.835 404.938 403.012 408.012C404.091 410.834 404.944 413.419 405.58 415.658C406.217 417.896 406.595 419.681 406.854 420.946C406.936 421.624 407.077 422.293 407.274 422.947Z" fill="#263238"/>
</svg>
